<svg width="16" height="16" viewBox="0 0 16 16" fill="none" xmlns="http://www.w3.org/2000/svg">
<rect width="16" height="16" rx="3" fill="#5EC3C1"/>
<path d="M13.6155 10.3531C13.2395 10.2149 12.4363 9.93013 11.4939 9.65333L12.1888 8.0544C12.9669 8.4672 13.448 9.23626 13.6155 10.3531ZM5.80801 13.8149C5.22401 13.7893 3.89868 13.5797 3.42668 12.2736L5.03628 12.2235C5.18668 12.6773 5.43201 13.1883 5.80801 13.8149ZM11.0907 2.92907C10.5883 3.0208 9.71948 3.24693 8.93441 3.76107L8.25228 2.65387C8.96801 2.17227 9.89868 2.2624 11.0907 2.92907V2.92907ZM13.9216 5.3904C13.4965 5.4 12.608 5.4512 11.6459 5.6768L11.2283 4.3696C12.3237 4.14773 13.2325 4.48533 13.9216 5.3904V5.3904ZM11.5829 5.99146C12.7323 5.704 13.7989 5.6816 14.0987 5.6816L14.4811 5.69013L14.3269 5.45547C13.5189 4.22933 12.3861 3.77227 11.0037 4.11307C9.54668 4.4768 8.20108 5.6256 7.62188 6.1744C7.76375 5.31626 8.21708 4.61493 8.97175 4.0848C10.0987 3.29067 11.5195 3.16213 11.5333 3.16107L11.9696 3.12373L11.5989 2.89067C10.0725 1.93067 8.85175 1.80053 7.96215 2.49333C7.06028 3.1968 6.67681 4.61493 6.39788 5.65066C6.26881 6.12906 6.07361 6.85226 5.93121 6.85226C5.92535 6.85226 5.90508 6.85013 5.86561 6.8208C4.80108 6.03306 3.53548 2.1408 3.52161 2.10187L3.48961 2H1.75095L1.20001 3.56587L3.67575 8.064C2.99468 9.7696 2.79521 11.1515 3.08321 12.1728C3.58508 13.9712 5.40428 14.1109 5.94988 14.1109C6.03201 14.1109 6.07895 14.1077 6.07895 14.1077L6.32161 14.0901L6.19361 13.8843C5.72375 13.1259 5.43308 12.5371 5.27841 12.0304C4.94668 10.9541 5.23521 10.2203 6.27468 9.4976C6.95735 9.024 8.71148 9.16053 11.2528 9.888C12.6192 10.2811 13.728 10.7083 13.7381 10.712L13.9621 10.7989L13.9376 10.56C13.7861 9.13813 13.1947 8.18133 12.1803 7.71627C11.7221 7.5056 11.1813 7.39893 10.5717 7.39893C9.79095 7.39893 9.07095 7.57173 8.64321 7.70026C9.22615 6.90453 10.2123 6.33066 11.5829 5.99146" fill="#231F20"/>
</svg>
